<svg width="124" height="89" viewBox="0 0 124 89" fill="none" xmlns="http://www.w3.org/2000/svg">
<g clip-path="url(#clip0_1_47)">
<path d="M121.881 33.5929C121.541 33.3129 118.461 30.9729 111.851 30.9729C110.141 30.9729 108.371 31.1429 106.661 31.4329C105.411 22.7129 98.1713 18.4929 97.8813 18.2729L96.1113 17.2429L94.9713 18.8929C93.5513 21.1129 92.4613 23.6229 91.8413 26.1829C90.6413 31.1429 91.3813 35.8129 93.8913 39.8029C90.8713 41.5129 85.9713 41.9129 84.9413 41.9729H4.01126C1.90126 41.9729 0.191257 43.6829 0.191257 45.7929C0.0812566 52.8629 1.27126 59.9229 3.72126 66.5929C6.51126 73.8829 10.6713 79.3029 16.0313 82.6029C22.0713 86.3029 31.9313 88.4129 43.0413 88.4129C48.0513 88.4129 53.0713 87.9529 58.0313 87.0429C64.9313 85.7929 71.5413 83.3929 77.6313 79.9229C82.6513 77.0129 87.1513 73.3129 90.9713 68.9829C97.4113 61.7429 101.231 53.6529 104.021 46.4729C104.421 46.4729 104.761 46.4729 105.161 46.4729C112.171 46.4729 116.501 43.6829 118.891 41.2829C120.491 39.8029 121.681 37.9729 122.541 35.9229L123.051 34.4429L121.881 33.5929ZM71.7913 39.6329H82.6213C83.1313 39.6329 83.5913 39.2329 83.5913 38.6629V28.9729C83.5913 28.4629 83.1913 28.0029 82.6213 28.0029H71.7913C71.2812 28.0029 70.8213 28.4029 70.8213 28.9729V38.6629C70.8813 39.2329 71.2812 39.6329 71.7913 39.6329ZM56.6913 11.8829H67.5213C68.0313 11.8829 68.4913 11.4829 68.4913 10.9129V1.22293C68.4913 0.71293 68.0313 0.25293 67.5213 0.25293H56.6913C56.1813 0.25293 55.7213 0.65293 55.7213 1.22293V10.9129C55.7213 11.4229 56.1713 11.8829 56.6913 11.8829ZM56.6913 25.7829H67.5213C68.0313 25.7829 68.4913 25.3229 68.4913 24.8129V15.1229C68.4913 14.6129 68.0313 14.1529 67.5213 14.1529H56.6913C56.1813 14.1529 55.7213 14.5529 55.7213 15.1229V24.8129C55.7213 25.3329 56.1713 25.7829 56.6913 25.7829ZM41.7013 25.7829H52.5313C53.0413 25.7829 53.5013 25.3229 53.5013 24.8129V15.1229C53.5013 14.6129 53.1013 14.1529 52.5313 14.1529H41.7013C41.1913 14.1529 40.7313 14.5529 40.7313 15.1229V24.8129C40.7313 25.3329 41.1313 25.7829 41.7013 25.7829ZM26.4813 25.7829H37.3113C37.8213 25.7829 38.2813 25.3229 38.2813 24.8129V15.1229C38.2813 14.6129 37.8813 14.1529 37.3113 14.1529H26.4813C25.9713 14.1529 25.5113 14.5529 25.5113 15.1229V24.8129C25.5713 25.3329 25.9713 25.7829 26.4813 25.7829ZM56.6913 39.6329H67.5213C68.0313 39.6329 68.4913 39.2329 68.4913 38.6629V28.9729C68.4913 28.4629 68.0913 28.0029 67.5213 28.0029H56.6913C56.1813 28.0029 55.7213 28.4029 55.7213 28.9729V38.6629C55.7213 39.2329 56.1713 39.6329 56.6913 39.6329ZM41.7013 39.6329H52.5313C53.0413 39.6329 53.5013 39.2329 53.5013 38.6629V28.9729C53.5013 28.4629 53.1013 28.0029 52.5313 28.0029H41.7013C41.1913 28.0029 40.7313 28.4029 40.7313 28.9729V38.6629C40.7313 39.2329 41.1313 39.6329 41.7013 39.6329ZM26.4813 39.6329H37.3113C37.8213 39.6329 38.2813 39.2329 38.2813 38.6629V28.9729C38.2813 28.4629 37.8813 28.0029 37.3113 28.0029H26.4813C25.9713 28.0029 25.5113 28.4029 25.5113 28.9729V38.6629C25.5713 39.2329 25.9713 39.6329 26.4813 39.6329ZM11.5513 39.6329H22.3813C22.8913 39.6329 23.3513 39.2329 23.3513 38.6629V28.9729C23.3513 28.4629 22.9513 28.0029 22.3813 28.0029H11.5513C11.0413 28.0029 10.5813 28.4029 10.5813 28.9729V38.6629C10.6413 39.2329 11.0413 39.6329 11.5513 39.6329Z" fill="#FBB034"/>
</g>
<defs>
<clipPath id="clip0_1_47">
<rect width="122.867" height="88.16" fill="white" transform="translate(0.184448 0.252441)"/>
</clipPath>
</defs>
</svg>
