<svg width="99" height="55" viewBox="0 0 99 55" fill="none" xmlns="http://www.w3.org/2000/svg">
<g clip-path="url(#clip0_1_50)">
<path d="M98.6175 53.0763C95.0325 53.9423 92.8145 53.1143 90.8255 50.2773L76.6745 31.6873L74.6285 29.1123L58.1035 50.3393C56.2155 52.8933 54.2345 54.0033 50.7115 53.1003L71.8715 26.1263L52.1715 1.76131C55.5595 1.13631 57.9005 1.4543 59.9795 4.3353L74.6565 23.1573L89.4415 4.43731C91.3355 1.88431 93.3715 0.914315 96.7725 1.85432L89.1335 11.4713L78.7835 24.2683C77.5525 25.7303 77.7215 26.7313 78.8555 28.1433L98.6175 53.0763ZM0.0765228 25.6753L1.80652 17.5923C6.51952 1.59031 25.8325 -5.05769 39.1515 4.82831C46.9355 10.6433 48.8695 18.8693 48.4845 28.0833H4.61052C3.95252 44.6663 16.5215 54.6763 32.5475 49.5693C38.1685 47.7763 41.4805 43.5963 43.1365 38.3663C43.9785 35.7473 45.3705 35.3363 47.9635 36.0853C46.6395 42.6263 43.6515 48.0893 37.3365 51.5083C27.9035 56.6273 14.4355 54.9713 7.35152 47.8583C3.13152 43.7313 1.38852 38.5023 0.606522 32.9093C0.482522 31.9853 0.236514 31.1043 0.0515137 30.2183C0.0685137 28.7043 0.0765228 27.1923 0.0765228 25.6783V25.6753ZM4.69052 24.5653H44.3385C44.0805 12.5723 36.2155 4.05431 25.4685 3.98231C13.6725 3.89431 5.20052 12.2093 4.69052 24.5653Z" fill="#FBB034"/>
</g>
<defs>
<clipPath id="clip0_1_50">
<rect width="98.566" height="54.303" fill="white" transform="translate(0.0515137 0.181152)"/>
</clipPath>
</defs>
</svg>
