
  <svg
    viewBox="129.676 146.009 98.566 54.303"
    xmlns="http://www.w3.org/2000/svg"
  >
    <path
      d="M 228.242 198.904 C 224.657 199.77 222.439 198.942 220.45 196.105 L 206.299 177.515 L 204.253 174.94 L 187.728 196.167 C 185.84 198.721 183.859 199.831 180.336 198.928 L 201.496 171.954 L 181.796 147.589 C 185.184 146.964 187.525 147.282 189.604 150.163 L 204.281 168.985 L 219.066 150.265 C 220.96 147.712 222.996 146.742 226.397 147.682 L 218.758 157.299 L 208.408 170.096 C 207.177 171.558 207.346 172.559 208.48 173.971 L 228.242 198.904 Z M 129.701 171.503 L 131.431 163.42 C 136.144 147.418 155.457 140.77 168.776 150.656 C 176.56 156.471 178.494 164.697 178.109 173.911 L 134.235 173.911 C 133.577 190.494 146.146 200.504 162.172 195.397 C 167.793 193.604 171.105 189.424 172.761 184.194 C 173.603 181.575 174.995 181.164 177.588 181.913 C 176.264 188.454 173.276 193.917 166.961 197.336 C 157.528 202.455 144.06 200.799 136.976 193.686 C 132.756 189.559 131.013 184.33 130.231 178.737 C 130.107 177.813 129.861 176.932 129.676 176.046 C 129.693 174.532 129.701 173.02 129.701 171.506 L 129.701 171.503 Z M 134.315 170.393 L 173.963 170.393 C 173.705 158.4 165.84 149.882 155.093 149.81 C 143.297 149.722 134.825 158.037 134.315 170.393 L 134.315 170.393 Z"
      fill-rule="nonzero"
    />
  </svg>


