
  <svg
    viewBox="213.783 178.868 95.39 131.066"
    xmlns="http://www.w3.org/2000/svg"
  >
    <path
      class="st0"
      d="M 213.833 284.622 L 229.963 181.392 C 230.163 180.122 231.143 179.132 232.403 178.912 C 233.663 178.692 234.923 179.312 235.533 180.442 L 252.213 211.562 L 258.863 198.902 C 259.373 197.922 260.393 197.312 261.503 197.312 C 262.613 197.312 263.623 197.922 264.143 198.902 L 309.163 284.622 L 213.833 284.622 L 213.833 284.622 Z"
      style="fill: rgb(66, 84, 102)"
    />
    <path
      class="st1"
      d="M 269.563 244.412 L 252.213 211.552 L 213.833 284.622 L 269.563 244.412 Z"
    />
    <path
      class="st2"
      d="M 309.173 284.622 L 296.813 208.162 C 296.623 207.062 295.843 206.162 294.783 205.822 C 293.723 205.482 292.563 205.762 291.773 206.552 L 213.833 284.622 L 256.953 308.802 C 259.663 310.312 262.963 310.312 265.663 308.802 L 309.173 284.622 L 309.173 284.622 Z"
      style="fill: rgb(26, 30, 33)"
    />
    <path
      class="st3"
      d="M 296.813 208.162 C 296.623 207.062 295.843 206.162 294.783 205.822 C 293.723 205.482 292.563 205.762 291.773 206.552 L 276.303 222.062 L 264.143 198.902 C 263.633 197.922 262.613 197.312 261.503 197.312 C 260.393 197.312 259.383 197.922 258.863 198.902 L 252.213 211.562 L 235.533 180.442 C 234.933 179.312 233.663 178.692 232.403 178.912 C 231.143 179.132 230.153 180.132 229.963 181.392 L 213.833 284.622 L 213.783 284.622 L 213.833 284.682 L 214.253 284.892 L 291.743 207.312 C 292.533 206.522 293.693 206.232 294.763 206.572 C 295.833 206.912 296.613 207.812 296.793 208.922 L 309.043 284.692 L 309.163 284.622 L 296.813 208.162 L 296.813 208.162 Z M 213.973 284.482 L 229.963 182.132 C 230.153 180.862 231.143 179.862 232.403 179.652 C 233.663 179.442 234.923 180.052 235.533 181.182 L 252.213 212.302 L 258.863 199.642 C 259.373 198.662 260.393 198.052 261.503 198.052 C 262.613 198.052 263.623 198.662 264.143 199.642 L 276.063 222.302 L 213.973 284.482 L 213.973 284.482 Z"
    />
    <path
      class="st4"
      d="M 265.673 308.072 C 262.963 309.582 259.663 309.582 256.963 308.072 L 213.943 283.962 L 213.843 284.622 L 256.963 308.802 C 259.673 310.312 262.973 310.312 265.673 308.802 L 309.173 284.622 L 309.063 283.932 L 265.673 308.072 L 265.673 308.072 Z"
    />
  </svg>


