<svg width="97" height="132" viewBox="0 0 97 132" fill="none" xmlns="http://www.w3.org/2000/svg">
<g clip-path="url(#clip0_1_52)">
<path d="M0.667419 106.553L16.7974 3.3233C16.9974 2.0533 17.9774 1.0633 19.2374 0.843302C20.4974 0.623302 21.7574 1.2433 22.3674 2.3733L39.0474 33.4933L45.6974 20.8333C46.2074 19.8533 47.2274 19.2433 48.3374 19.2433C49.4474 19.2433 50.4574 19.8533 50.9774 20.8333L95.9974 106.553H0.667419Z" fill="#FBB034"/>
<path d="M56.3974 66.3434L39.0474 33.4834L0.667419 106.553L56.3974 66.3434Z" fill="#FBB034"/>
<path d="M96.0074 106.554L83.6474 30.0935C83.4574 28.9935 82.6774 28.0935 81.6174 27.7535C80.5574 27.4135 79.3974 27.6935 78.6074 28.4835L0.667419 106.554L43.7874 130.734C46.4974 132.244 49.7974 132.244 52.4974 130.734L96.0074 106.554Z" fill="#FBB034"/>
<path d="M83.6474 30.0933C83.4574 28.9933 82.6774 28.0933 81.6174 27.7533C80.5574 27.4133 79.3974 27.6933 78.6074 28.4833L63.1374 43.9933L50.9774 20.8333C50.4674 19.8533 49.4474 19.2433 48.3374 19.2433C47.2274 19.2433 46.2174 19.8533 45.6974 20.8333L39.0474 33.4933L22.3674 2.3733C21.7674 1.2433 20.4974 0.623302 19.2374 0.843302C17.9774 1.0633 16.9874 2.0633 16.7974 3.3233L0.667419 106.553H0.617432L0.667419 106.613L1.08743 106.823L78.5774 29.2433C79.3674 28.4533 80.5274 28.1633 81.5974 28.5033C82.6674 28.8433 83.4474 29.7433 83.6274 30.8533L95.8774 106.623L95.9974 106.553L83.6474 30.0933ZM0.807434 106.413L16.7974 4.0633C16.9874 2.7933 17.9774 1.79329 19.2374 1.58329C20.4974 1.37329 21.7574 1.98331 22.3674 3.11331L39.0474 34.2333L45.6974 21.5733C46.2074 20.5933 47.2274 19.9833 48.3374 19.9833C49.4474 19.9833 50.4574 20.5933 50.9774 21.5733L62.8974 44.2333L0.807434 106.413Z" fill="#FBB034"/>
<path d="M52.5074 130.003C49.7974 131.513 46.4974 131.513 43.7974 130.003L0.77742 105.893L0.677429 106.553L43.7974 130.733C46.5074 132.243 49.8074 132.243 52.5074 130.733L96.0074 106.553L95.8974 105.863L52.5074 130.003Z" fill="#FBB034"/>
</g>
<defs>
<clipPath id="clip0_1_52">
<rect width="95.39" height="131.066" fill="white" transform="translate(0.617432 0.799316)"/>
</clipPath>
</defs>
</svg>
