<svg width="123" height="124" viewBox="0 0 123 124" fill="none" xmlns="http://www.w3.org/2000/svg">
<g clip-path="url(#clip0_1_66)">
<path d="M120.565 56.8525L66.9146 3.21252C63.8246 0.122519 58.8146 0.122519 55.7246 3.21252L44.5846 14.3525L58.7146 28.4825C62.0046 27.3725 65.7646 28.1125 68.3846 30.7325C71.0146 33.3625 71.7546 37.1625 70.6146 40.4625L84.2346 54.0825C87.5346 52.9425 91.3346 53.6825 93.9646 56.3125C97.6446 59.9925 97.6446 65.9525 93.9646 69.6225C90.2846 73.3025 84.3246 73.3025 80.6446 69.6225C77.8746 66.8525 77.1946 62.7925 78.5946 59.3825L65.8946 46.6825V80.1125C66.7946 80.5525 67.6346 81.1525 68.3846 81.8925C72.0646 85.5725 72.0646 91.5325 68.3846 95.2125C64.7046 98.8925 58.7446 98.8925 55.0746 95.2125C51.3946 91.5325 51.3946 85.5725 55.0746 81.8925C55.9846 80.9825 57.0346 80.3025 58.1546 79.8425V46.1025C57.0346 45.6425 55.9846 44.9625 55.0746 44.0525C52.2846 41.2725 51.6146 37.1825 53.0446 33.7625L39.1046 19.8225L2.32458 56.6125C-0.76542 59.7025 -0.76542 64.7125 2.32458 67.8025L55.9746 121.453C59.0646 124.543 64.0746 124.543 67.1646 121.453L120.565 68.0625C123.655 64.9625 123.655 59.9525 120.565 56.8525Z" fill="#FBB034"/>
</g>
<defs>
<clipPath id="clip0_1_66">
<rect width="122.875" height="122.875" fill="white" transform="translate(0.00732422 0.89502)"/>
</clipPath>
</defs>
</svg>
