<svg width="101" height="101" viewBox="0 0 101 101" fill="none" xmlns="http://www.w3.org/2000/svg">
<g clip-path="url(#clip0_1_69)">
<path d="M94.5392 2.6626H7.2346C3.72965 2.6626 0.882324 5.37756 0.882324 8.71915V91.9485C0.882324 95.2894 3.72965 98.0023 7.2346 98.0023H94.5301C98.0371 98.0023 100.882 95.2894 100.882 91.9549V8.71915C100.882 5.37756 98.0371 2.6626 94.5392 2.6626ZM55.6441 75.72C55.6441 84.7908 50.0656 88.9224 41.9179 88.9224C34.5517 88.9224 29.2394 84.2141 27.0729 79.8425L34.5609 75.525C36.0015 77.9626 38.1968 79.8425 41.3589 79.8425C44.3822 79.8425 46.1206 78.7166 46.1206 74.3379V45.7928H55.6441V75.72ZM76.3013 88.9224C67.8656 88.9224 63.075 84.8703 60.4065 79.8425L67.5488 75.3025C69.4941 78.335 71.6135 81.2358 76.0964 81.2358C79.8632 81.2358 81.8347 79.4454 81.8347 76.962C81.8347 73.9992 79.7893 72.9438 75.6514 71.2167L73.38 70.2859C66.825 67.6251 62.4631 64.2906 62.4631 57.2335C62.4631 50.7412 67.6607 45.7928 75.7704 45.7928C81.5467 45.7928 85.6945 47.7086 88.6897 52.7274L81.6206 57.0631C80.0583 54.3961 78.3847 53.3491 75.7704 53.3491C73.111 53.3491 71.4276 54.9636 71.4276 57.0631C71.4276 59.6619 73.111 60.7089 77.0089 62.3227L79.2774 63.2535C87.0062 66.4014 91.3589 69.6205 91.3589 76.855C91.3589 84.6499 84.9327 88.9224 76.3013 88.9224Z" fill="#FBB034"/>
</g>
<defs>
<clipPath id="clip0_1_69">
<rect width="100" height="100" fill="white" transform="translate(0.882324 0.33252)"/>
</clipPath>
</defs>
</svg>
