
  <svg
    viewBox="177.53 185.918 142.028 135.409"
    width="100"
    height="100"
    xmlns="http://www.w3.org/2000/svg"
  >
    <path
      d="M 310.549 185.918 L 186.552 185.918 C 181.574 185.918 177.53 189.774 177.53 194.52 L 177.53 312.729 C 177.53 317.474 181.574 321.327 186.552 321.327 L 310.536 321.327 C 315.517 321.327 319.558 317.474 319.558 312.738 L 319.558 194.52 C 319.558 189.774 315.517 185.918 310.549 185.918 Z M 255.307 289.68 C 255.307 302.563 247.384 308.431 235.812 308.431 C 225.35 308.431 217.805 301.744 214.728 295.535 L 225.363 289.403 C 227.409 292.865 230.527 295.535 235.018 295.535 C 239.312 295.535 241.781 293.936 241.781 287.717 L 241.781 247.175 L 255.307 247.175 Z M 284.646 308.431 C 272.665 308.431 265.861 302.676 262.071 295.535 L 272.215 289.087 C 274.978 293.394 277.988 297.514 284.355 297.514 C 289.705 297.514 292.505 294.971 292.505 291.444 C 292.505 287.236 289.6 285.737 283.723 283.284 L 280.497 281.962 C 271.187 278.183 264.992 273.447 264.992 263.424 C 264.992 254.203 272.374 247.175 283.892 247.175 C 292.096 247.175 297.987 249.896 302.241 257.024 L 292.201 263.182 C 289.982 259.394 287.605 257.907 283.892 257.907 C 280.115 257.907 277.724 260.2 277.724 263.182 C 277.724 266.873 280.115 268.36 285.651 270.652 L 288.873 271.974 C 299.85 276.445 306.032 281.017 306.032 291.292 C 306.032 302.363 296.905 308.431 284.646 308.431 Z"
    />
  </svg>


