<svg width="75" height="167" viewBox="0 0 75 167" fill="none" xmlns="http://www.w3.org/2000/svg">
<g clip-path="url(#clip0_1_71)">
<path d="M36.9084 0.456543L41.3559 8.81023C42.3559 10.3515 43.4396 11.7165 44.7146 12.9877C48.4383 16.7114 51.9745 20.6114 55.152 24.7889C62.687 34.6838 67.7707 45.6725 71.3994 57.5561C73.5769 64.8161 74.7581 72.2635 74.8469 79.7934C75.2106 102.307 67.4932 121.638 51.9333 137.703C49.3921 140.244 46.6733 142.598 43.7571 144.692C42.2159 144.692 41.4859 143.509 40.8509 142.422C39.6696 140.427 38.9446 138.15 38.5809 135.886C38.0334 133.161 37.6746 130.438 37.8521 127.626V126.356C37.7271 126.084 36.3684 1.09779 36.9096 0.457793V0.459043L36.9084 0.456543Z" fill="#FBB034"/>
<path d="M36.9082 0.178854C36.7257 -0.184893 36.5445 0.0901049 36.3607 0.267604C36.4495 2.09009 35.8132 3.71508 34.8195 5.26757C33.7257 6.8088 32.2783 7.99255 30.8245 9.26254C22.7533 16.2512 16.3996 24.6937 11.3109 34.1348C4.54096 46.8423 1.05099 60.4597 0.0622451 74.797C-0.390252 79.9683 1.69848 98.2169 3.32847 103.482C7.77594 117.459 15.7646 129.172 26.1121 139.337C28.6533 141.784 31.372 144.054 34.1845 146.237C35.002 146.237 35.0907 145.508 35.277 144.965C35.6332 143.805 35.9095 142.62 36.0945 141.423L37.917 127.81L36.907 0.178854H36.9082Z" fill="#FBB034"/>
<path d="M41.3559 150.22C41.5384 148.136 42.5384 146.408 43.6271 144.684C42.5334 144.232 41.7209 143.33 41.0859 142.325C40.5384 141.419 40.0859 140.33 39.7321 139.33C38.4609 135.518 38.1909 131.518 37.8259 127.623V125.264C37.3734 125.628 37.2784 128.712 37.2784 129.17C37.0247 133.277 36.4609 137.395 35.6434 141.427C35.3722 143.062 35.1909 144.692 34.1847 146.144C34.1847 146.327 34.1847 146.508 34.2734 146.78C35.9084 151.593 36.3572 156.493 36.6322 161.488V163.31C36.6322 165.486 36.5434 165.028 38.3509 165.758C39.0797 166.029 39.8921 166.121 40.6209 166.664C41.1684 166.664 41.2571 166.211 41.2571 165.846L40.9859 162.851V154.498C40.8971 153.039 41.1684 151.591 41.3496 150.228L41.3559 150.22Z" fill="#FBB034"/>
</g>
<defs>
<clipPath id="clip0_1_71">
<rect width="74.8594" height="166.665" fill="white"/>
</clipPath>
</defs>
</svg>
