<svg width="101" height="101" viewBox="0 0 101 101" fill="none" xmlns="http://www.w3.org/2000/svg">
<g clip-path="url(#clip0_1_76)">
<path d="M57.9613 33.2512L54.5346 39.2907L42.8056 18.6327L6.79652 82.0311H31.215C31.1881 85.3398 33.8489 88.0437 37.1568 88.0706H6.79652C4.66804 88.0543 2.71212 86.8944 1.67678 85.0345C0.617832 83.1665 0.617832 80.8793 1.67678 79.0113L37.6614 15.6129C39.8745 11.6531 45.5445 11.5733 47.8675 15.4705C47.896 15.5177 47.9237 15.5649 47.9497 15.6129L57.9613 33.2512Z" fill="#FBB034"/>
<path d="M83.9507 79.0111L61.3962 39.2905L57.9613 33.251L54.5346 39.2905L31.9719 79.0111C30.9146 80.8856 30.9146 83.1761 31.9719 85.0506C33.0171 86.9113 34.9827 88.0647 37.1161 88.0704H78.8065C80.9439 88.0614 82.9104 86.9007 83.9507 85.0343C85.0088 83.1598 85.0088 80.8694 83.9507 78.9948V79.0111ZM37.1161 82.0309L57.9613 45.3218L78.8065 82.0309H37.1161Z" fill="#FBB034"/>
<path d="M100.083 85.0346C99.0411 86.8936 97.0787 88.0478 94.947 88.0543H78.8064C82.1143 88.0275 84.7718 85.3219 84.7401 82.0148H94.9307L66.0274 31.1268L61.396 39.2663L57.9612 33.2268L60.8833 28.0827C63.0964 24.1228 68.7664 24.043 71.0894 27.9402C71.1179 27.9874 71.1455 28.0346 71.1716 28.0827L100.083 79.0114C101.149 80.8835 101.149 83.1788 100.083 85.0508V85.0346Z" fill="#FBB034"/>
</g>
<defs>
<clipPath id="clip0_1_76">
<rect width="100" height="100" fill="white" transform="translate(0.882324 0.33252)"/>
</clipPath>
</defs>
</svg>
