
  <svg
    viewBox="198.01 194.545 122.858 92.728"
    width="100"
    height="100"
    xmlns="http://www.w3.org/2000/svg"
  >
    <path
      class="cls-1"
      d="M 268.136 219.923 L 263.926 227.343 L 249.516 201.963 L 205.276 279.853 L 235.276 279.853 C 235.243 283.918 238.512 287.24 242.576 287.273 L 205.276 287.273 C 202.661 287.253 200.258 285.828 198.986 283.543 C 197.685 281.248 197.685 278.438 198.986 276.143 L 243.196 198.253 C 245.915 193.388 252.881 193.29 255.735 198.078 C 255.77 198.136 255.804 198.194 255.836 198.253 L 268.136 219.923 Z"
    />
    <path
      class="cls-2"
      d="M 300.066 276.143 L 272.356 227.343 L 268.136 219.923 L 263.926 227.343 L 236.206 276.143 C 234.907 278.446 234.907 281.26 236.206 283.563 C 237.49 285.849 239.905 287.266 242.526 287.273 L 293.746 287.273 C 296.372 287.262 298.788 285.836 300.066 283.543 C 301.366 281.24 301.366 278.426 300.066 276.123 Z M 242.526 279.853 L 268.136 234.753 L 293.746 279.853 Z"
    />
    <path
      class="cls-3"
      d="M 319.886 283.543 C 318.606 285.827 316.195 287.245 313.576 287.253 L 293.746 287.253 C 297.81 287.22 301.075 283.896 301.036 279.833 L 313.556 279.833 L 278.046 217.313 L 272.356 227.313 L 268.136 219.893 L 271.726 213.573 C 274.445 208.708 281.411 208.61 284.265 213.398 C 284.3 213.456 284.334 213.514 284.366 213.573 L 319.886 276.143 C 321.196 278.443 321.196 281.263 319.886 283.563 Z"
    />
  </svg>


