<svg width="129" height="128" viewBox="0 0 129 128" fill="none" xmlns="http://www.w3.org/2000/svg">
<g clip-path="url(#clip0_1_83)">
<path d="M63.879 0.820312C31.4633 0.820315 33.4876 14.8777 33.4876 14.8777L33.5237 29.441H64.4572V33.8136H21.2371C21.2371 33.8136 0.494324 31.4612 0.494324 64.1688C0.494321 96.8765 18.5991 95.7166 18.5991 95.7166H29.4041V80.539C29.4041 80.539 28.8217 62.4342 47.2197 62.4342H77.9002C77.9002 62.4342 95.1377 62.7129 95.1377 45.775V17.7687C95.1377 17.7687 97.7548 0.820312 63.879 0.820312ZM46.8222 10.6135C49.8999 10.6135 52.3873 13.101 52.3873 16.1786C52.3874 19.2563 49.8999 21.7438 46.8222 21.7438C43.7446 21.7438 41.2571 19.2563 41.2571 16.1786C41.2571 13.101 43.7446 10.6135 46.8222 10.6135Z" fill="#FBB034"/>
<path d="M64.7996 127.845C97.2152 127.845 95.191 113.788 95.191 113.788L95.1548 99.2246H64.2214V94.852H107.441C107.441 94.852 128.184 97.2044 128.184 64.4967C128.184 31.7891 110.079 32.9489 110.079 32.9489H99.2745V48.1266C99.2745 48.1266 99.8569 66.2313 81.4588 66.2313H50.7783C50.7783 66.2313 33.5409 65.9527 33.5409 82.8906V110.897C33.5409 110.897 30.9238 127.845 64.7996 127.845ZM81.8563 118.052C78.7787 118.052 76.2912 115.565 76.2912 112.487C76.2912 109.409 78.7787 106.922 81.8563 106.922C84.934 106.922 87.4215 109.409 87.4215 112.487C87.4215 115.565 84.934 118.052 81.8563 118.052Z" fill="#FBB034"/>
</g>
<defs>
<clipPath id="clip0_1_83">
<rect width="127.69" height="127.025" fill="white" transform="translate(0.494446 0.819824)"/>
</clipPath>
</defs>
</svg>
