<svg width="124" height="111" viewBox="0 0 124 111" fill="none" xmlns="http://www.w3.org/2000/svg">
<g clip-path="url(#clip0_1_80)">
<path fill-rule="evenodd" clip-rule="evenodd" d="M123.762 55.3482C123.762 47.2082 113.572 39.4982 97.9421 34.7082C101.552 18.7782 99.9421 6.10816 92.8821 2.04816C91.2521 1.09816 89.3521 0.648164 87.2721 0.648164V6.23816C88.4221 6.23816 89.3521 6.46816 90.1321 6.88816C93.5421 8.83816 95.0121 16.2782 93.8621 25.8482C93.5821 28.1982 93.1321 30.6782 92.5821 33.2082C87.6721 32.0082 82.3121 31.0782 76.6821 30.4782C73.3021 25.8482 69.7921 21.6382 66.2621 17.9582C74.4221 10.3582 82.0821 6.20816 87.2921 6.20816V0.618164C80.4021 0.618164 71.3921 5.52816 62.2721 14.0482C53.1521 5.57816 44.1421 0.718164 37.2521 0.718164V6.30816C42.4321 6.30816 50.1221 10.4382 58.2921 17.9782C54.7821 21.6582 51.2821 25.8382 47.9521 30.4782C42.2921 31.0782 36.9321 32.0082 32.0221 33.2282C31.4421 30.7282 31.0221 28.2982 30.7221 25.9682C29.5421 16.3982 31.0021 8.95816 34.3821 6.97816C35.1321 6.52816 36.1121 6.32816 37.2621 6.32816V0.748164C35.1621 0.748164 33.2521 1.19816 31.6021 2.14816C24.5621 6.20816 22.9821 18.8582 26.6221 34.7382C11.0221 39.5382 0.88208 47.2282 0.88208 55.3482C0.88208 63.4882 11.0721 71.1982 26.7021 75.9882C23.0921 91.9182 24.7021 104.588 31.7621 108.648C33.3921 109.598 35.2921 110.048 37.4021 110.048C44.2921 110.048 53.3021 105.138 62.4221 96.6182C71.5421 105.088 80.5521 109.948 87.4421 109.948C89.5421 109.948 91.4521 109.498 93.1021 108.548C100.142 104.488 101.722 91.8382 98.0821 75.9582C113.622 71.1782 123.762 63.4582 123.762 55.3482ZM73.7421 55.3482C73.7421 49.0282 68.6221 43.8982 62.2921 43.8982C55.9721 43.8982 50.8421 49.0182 50.8421 55.3482C50.8421 61.6782 55.9621 66.7982 62.2921 66.7982C68.6221 66.7882 73.7421 61.6682 73.7421 55.3482ZM91.1521 38.6382C90.2221 41.8682 89.0721 45.1982 87.7721 48.5282C86.7421 46.5282 85.6721 44.5182 84.4921 42.5182C83.3421 40.5182 82.1121 38.5582 80.8821 36.6582C84.4421 37.1882 87.8721 37.8382 91.1521 38.6382ZM79.6821 65.3182C77.7321 68.6982 75.7221 71.9082 73.6421 74.8882C69.9121 75.2182 66.1321 75.3882 62.3221 75.3882C58.5421 75.3882 54.7621 75.2082 51.0521 74.9082C48.9721 71.9282 46.9421 68.7482 44.9921 65.3882C43.0921 62.1082 41.3621 58.7782 39.7821 55.4182C41.3321 52.0582 43.0921 48.7082 44.9621 45.4282C46.9121 42.0482 48.9221 38.8382 51.0021 35.8582C54.7321 35.5282 58.5121 35.3582 62.3221 35.3582C66.1021 35.3582 69.8821 35.5382 73.5921 35.8382C75.6721 38.8182 77.7021 41.9982 79.6521 45.3582C81.5521 48.6382 83.2821 51.9682 84.8621 55.3282C83.2821 58.6782 81.5621 62.0282 79.6821 65.3182ZM87.7721 62.0582C89.1221 65.4182 90.2721 68.7682 91.2321 72.0282C87.9521 72.8282 84.4921 73.5082 80.9121 74.0282C82.1421 72.0982 83.3621 70.1182 84.5221 68.0882C85.6621 66.0882 86.7421 64.0582 87.7721 62.0582ZM62.3721 88.7782C60.0421 86.3782 57.7121 83.6982 55.4121 80.7682C57.6621 80.8682 59.9721 80.9482 62.3021 80.9482C64.6521 80.9482 66.9821 80.8982 69.2621 80.7682C67.0021 83.6982 64.6721 86.3782 62.3721 88.7782ZM43.7421 74.0282C40.1821 73.4982 36.7521 72.8482 33.4721 72.0482C34.4021 68.8182 35.5521 65.4882 36.8521 62.1582C37.8821 64.1582 38.9521 66.1682 40.1321 68.1682C41.3121 70.1782 42.5121 72.1282 43.7421 74.0282ZM62.2421 21.9082C64.5721 24.3082 66.9021 26.9882 69.2021 29.9182C66.9521 29.8182 64.6421 29.7382 62.3121 29.7382C59.9621 29.7382 57.6321 29.7882 55.3521 29.9182C57.6121 26.9882 59.9421 24.3082 62.2421 21.9082ZM43.7121 36.6582C42.4821 38.5882 41.2621 40.5682 40.1021 42.5982C38.9521 44.5982 37.8721 46.6082 36.8421 48.6082C35.4921 45.2482 34.3421 41.8982 33.3821 38.6382C36.6721 37.8582 40.1321 37.1882 43.7121 36.6582ZM21.0421 68.0182C12.1721 64.2382 6.44208 59.2782 6.44208 55.3482C6.44208 51.4182 12.1821 46.4282 21.0421 42.6782C23.1921 41.7482 25.5521 40.9282 27.9821 40.1482C29.4121 45.0582 31.2921 50.1682 33.6221 55.3982C31.3221 60.6082 29.4621 65.6882 28.0621 70.5782C25.5821 69.7982 23.2221 68.9482 21.0421 68.0182ZM34.5221 103.808C31.1121 101.858 29.6421 94.4182 30.7921 84.8482C31.0721 82.4982 31.5221 80.0182 32.0721 77.4882C36.9821 78.6882 42.3421 79.6182 47.9721 80.2182C51.3521 84.8482 54.8621 89.0582 58.3921 92.7382C50.2221 100.328 42.5621 104.488 37.3521 104.488C36.2221 104.458 35.2721 104.238 34.5221 103.808ZM93.9321 84.7282C95.1121 94.2982 93.6521 101.738 90.2721 103.718C89.5221 104.168 88.5421 104.368 87.3921 104.368C82.2121 104.368 74.5221 100.238 66.3521 92.6982C69.8621 89.0182 73.3621 84.8382 76.6921 80.1982C82.3521 79.5982 87.7121 78.6682 92.6221 77.4382C93.2021 79.9682 93.6521 82.3982 93.9321 84.7282ZM103.572 68.0182C101.422 68.9482 99.0621 69.7682 96.6321 70.5482C95.2021 65.6382 93.3221 60.5282 90.9921 55.2982C93.2921 50.0882 95.1521 45.0082 96.5521 40.1182C99.0321 40.8982 101.382 41.7482 103.592 42.6682C112.462 46.4482 118.192 51.4082 118.192 55.3382C118.172 59.2782 112.442 64.2582 103.572 68.0182Z" fill="#FBB034"/>
</g>
<defs>
<clipPath id="clip0_1_80">
<rect width="122.88" height="109.43" fill="white" transform="translate(0.882324 0.617676)"/>
</clipPath>
</defs>
</svg>
