
  <svg
    viewBox="150.516 212.148 122.88 73.29"
    xmlns="http://www.w3.org/2000/svg"
  >
    <path
      class="cls-1"
      d="M 211.956 212.148 C 195.576 212.148 185.336 220.291 181.236 236.578 C 187.383 228.438 194.549 225.384 202.736 227.418 C 207.416 228.578 210.736 231.948 214.456 235.678 C 220.456 241.758 227.456 248.788 242.676 248.788 C 259.056 248.788 269.296 240.644 273.396 224.358 C 267.256 232.504 260.089 235.558 251.896 233.518 C 247.216 232.358 243.896 228.988 240.176 225.258 C 234.156 219.148 227.186 212.148 211.956 212.148 Z M 181.236 248.788 C 164.856 248.788 154.616 256.931 150.516 273.218 C 156.669 265.078 163.836 262.024 172.016 264.058 C 176.696 265.218 180.016 268.588 183.736 272.328 C 189.736 278.398 196.736 285.438 211.956 285.438 C 228.336 285.438 238.576 277.294 242.676 261.008 C 236.536 269.148 229.369 272.194 221.176 270.148 C 216.496 268.988 213.176 265.618 209.456 261.888 C 203.456 255.808 196.456 248.768 181.236 248.768 Z"
      style="fill-rule: evenodd"
    />
  </svg>


