<svg width="124" height="74" viewBox="0 0 124 74" fill="none" xmlns="http://www.w3.org/2000/svg">
<g clip-path="url(#clip0_1_87)">
<path fill-rule="evenodd" clip-rule="evenodd" d="M62.2022 0.6875C45.8222 0.6875 35.5822 8.83051 31.4822 25.1175C37.6292 16.9775 44.7952 13.9235 52.9822 15.9575C57.6622 17.1175 60.9822 20.4875 64.7022 24.2175C70.7022 30.2975 77.7022 37.3275 92.9222 37.3275C109.302 37.3275 119.542 29.1835 123.642 12.8975C117.502 21.0435 110.335 24.0975 102.142 22.0575C97.4622 20.8975 94.1422 17.5275 90.4222 13.7975C84.4022 7.6875 77.4322 0.6875 62.2022 0.6875ZM31.4822 37.3275C15.1022 37.3275 4.86221 45.4705 0.762207 61.7575C6.91521 53.6175 14.0822 50.5635 22.2622 52.5975C26.9422 53.7575 30.2622 57.1275 33.9822 60.8675C39.9822 66.9375 46.9822 73.9775 62.2022 73.9775C78.5822 73.9775 88.8222 65.8335 92.9222 49.5475C86.7822 57.6875 79.6152 60.7335 71.4222 58.6875C66.7422 57.5275 63.4222 54.1575 59.7022 50.4275C53.7022 44.3475 46.7022 37.3075 31.4822 37.3075V37.3275Z" fill="#FBB034"/>
</g>
<defs>
<clipPath id="clip0_1_87">
<rect width="122.88" height="73.29" fill="white" transform="translate(0.762207 0.6875)"/>
</clipPath>
</defs>
</svg>
