<svg width="101" height="101" viewBox="0 0 101 101" fill="none" xmlns="http://www.w3.org/2000/svg">
<path d="M90.522 8.33252H10.522C9.41597 8.33252 8.52197 9.22852 8.52197 10.3325V90.3325C8.52197 91.4365 9.41597 92.3325 10.522 92.3325H90.522C91.628 92.3325 92.522 91.4365 92.522 90.3325V10.3325C92.522 9.22852 91.628 8.33252 90.522 8.33252ZM58.522 53.2225H48.522V84.3325H40.522V53.2225H30.522V46.3325H58.522V53.2225ZM60.764 82.5565V74.2405C60.764 74.2405 65.306 77.6645 70.756 77.6645C76.206 77.6645 75.996 74.1005 75.996 73.6125C75.996 68.4405 60.554 68.4405 60.554 56.9825C60.554 41.4005 83.054 47.5485 83.054 47.5485L82.774 54.9565C82.774 54.9565 79 52.4405 74.738 52.4405C70.476 52.4405 68.938 54.4665 68.938 56.6325C68.938 62.2225 84.52 61.6645 84.52 72.9145C84.522 90.2425 60.764 82.5565 60.764 82.5565Z" fill="#FBB034"/>
</svg>
